<svg id="Capa_1" enable-background="new 0 0 512 512" height="512" viewBox="0 0 512 512" width="512" xmlns="http://www.w3.org/2000/svg"><g><g><path d="m457.869 243.723c-.067-.301-.134-.611-.209-.912-5.991-25.129-31.246-40.802-56.843-37.137-15.815 2.278-31.656 4.179-47.516 5.707-9.064.873-15.009-9.381-9.618-16.719 13.228-18.006 21.043-40.236 21.043-64.29 0-59.563-47.898-107.938-107.277-108.716-.485-.008-.962-.008-1.448-.008-.485 0-.962 0-1.448.008-59.379.778-107.277 49.153-107.277 108.716 0 24.054 7.811 46.285 21.037 64.291 5.39 7.339-.555 17.591-9.619 16.718-15.857-1.528-31.699-3.428-47.517-5.706-25.597-3.665-50.844 12.008-56.843 37.137-.067.301-.134.611-.201.912-1.088 4.745-1.322 9.514-.787 14.158 0 .017 0 .034.008.05.159 1.356.377 2.703.669 4.033 3.908 18.276 19.665 33.991 41.354 38.057 12.821 2.416 25.685 4.535 38.589 6.363 9.893 1.401 17.225 9.905 17.225 19.896 0 28.334-6.535 56.285-19.096 81.682l-5.032 10.174c-12.248 24.764-2.103 54.767 22.661 67.016 24.763 12.248 54.767 2.103 67.016-22.661l22.491-45.472c6.868-13.886 26.671-13.886 33.539 0l22.491 45.472c12.248 24.764 42.252 34.909 67.016 22.661 24.764-12.248 34.909-42.252 22.661-67.016l-5.032-10.174c-12.561-25.397-19.096-53.349-19.096-81.682v-.001c0-9.992 7.332-18.495 17.225-19.896 12.901-1.828 25.767-3.946 38.581-6.362 21.706-4.067 37.463-19.798 41.371-38.091.284-1.322.51-2.661.661-4 .008-.017.008-.033.008-.05.535-4.652.3-9.414-.787-14.158z" fill="#c6865c"/><path d="m471.657 240.601-.245-1.066c-3.367-14.127-11.817-26.774-23.784-35.62-11.27-8.327-25.255-12.911-39.383-12.911-3.15 0-6.319.217-9.45.67-12.967 1.867-26.132 3.499-39.25 4.866 12.665-19.748 19.323-42.457 19.323-66.166 0-32.536-12.59-63.205-35.46-86.348-22.832-23.124-53.302-36.091-85.876-36.516 0 0-.877-.009-1.254-.009l-1.914.009c-32.479.424-62.94 13.392-85.782 36.516-22.869 23.143-35.459 53.812-35.459 86.348 0 23.709 6.658 46.418 19.323 66.166-13.118-1.367-26.283-2.999-39.269-4.866-3.122-.453-6.29-.67-9.44-.67-14.052 0-27.981 4.546-39.222 12.797-11.92 8.752-20.389 21.285-23.841 35.299l-.104.424-.273 1.207c-1.33 5.922-1.707 11.967-1.094 17.994l.038.33.057.519c.217 1.848.519 3.659.896 5.366 5.3 24.765 25.944 43.994 52.557 48.983 12.929 2.433 26.123 4.612 39.232 6.47 2.792.396 5.055 3.037 5.055 5.894 0 26.01-6.092 52.086-17.626 75.408l-5.036 10.176c-7.592 15.363-8.752 32.762-3.263 49.002s16.975 29.367 32.338 36.959c8.94 4.423 18.494 6.668 28.415 6.668 24.595 0 46.654-13.693 57.556-35.733l22.483-45.475c.83-1.66 2.235-2.537 4.093-2.537s3.272.877 4.093 2.537l22.492 45.475c10.893 22.04 32.951 35.733 57.556 35.733 9.912 0 19.465-2.244 28.405-6.668 15.363-7.592 26.849-20.719 32.338-36.959 5.498-16.24 4.329-33.639-3.263-49.002l-5.036-10.176c-11.534-23.322-17.626-49.398-17.626-75.417 0-2.848 2.263-5.489 5.064-5.885 13.109-1.858 26.312-4.036 39.194-6.47 26.661-4.989 47.304-24.256 52.595-49.002.396-1.829.688-3.64.896-5.432l.113-1.103c.573-5.969.177-11.966-1.162-17.785zm-36.393 14.221-.047.481c-.057.509-.151 1.066-.283 1.669-1.735 8.12-9.412 17.4-22.662 19.88-12.382 2.329-25.001 4.414-37.553 6.186-21.37 3.027-37.487 21.625-37.487 43.24 0 31.791 7.441 63.648 21.54 92.138l5.027 10.176c3.131 6.328 3.612 13.505 1.349 20.2-2.263 6.686-6.997 12.1-13.326 15.231-3.697 1.829-7.629 2.754-11.685 2.754-10.157 0-19.248-5.649-23.746-14.731l-22.492-45.475c-7.177-14.523-21.7-23.539-37.902-23.539s-30.725 9.016-37.902 23.539l-22.492 45.475c-4.489 9.082-13.59 14.731-23.737 14.731-4.065 0-7.997-.924-11.694-2.754-6.328-3.131-11.062-8.544-13.326-15.231-2.263-6.696-1.782-13.873 1.349-20.2l5.036-10.176c14.089-28.49 21.53-60.347 21.53-92.128 0-21.625-16.117-40.212-37.487-43.249-12.543-1.773-25.171-3.857-37.534-6.186-13.269-2.48-20.936-11.741-22.662-19.814l-.028-.141c-.113-.5-.207-1.075-.283-1.716l-.028-.255c-.198-1.98-.075-3.98.368-5.932l.198-.868c2.773-11.251 13.863-19.399 26.434-19.399 1.367 0 2.744.094 4.093.283 16.051 2.31 32.404 4.281 48.596 5.838 1.113.113 2.235.16 3.348.16 12.92 0 24.595-7.196 30.461-18.786 5.828-11.515 4.706-25.124-2.924-35.516-10.77-14.665-16.466-32.064-16.466-50.332 0-22.549 8.723-43.796 24.567-59.838 15.834-16.023 36.94-25.01 59.442-25.303 0 0 1.33-.009 1.424-.009.255 0 .858.009.858.009 22.502.292 43.608 9.28 59.442 25.303 15.844 16.042 24.567 37.289 24.567 59.838 0 18.258-5.696 35.667-16.466 50.332-7.639 10.393-8.761 24.001-2.933 35.516 5.866 11.59 17.541 18.786 30.471 18.786 1.113 0 2.235-.047 3.339-.16 16.202-1.556 32.555-3.527 48.615-5.838 1.33-.189 2.716-.283 4.074-.283 12.637 0 23.775 8.224 26.472 19.55l.17.717c.431 1.914.563 3.875.375 5.827z" fill="#f9efda"/><circle cx="256.001" cy="255.999" fill="#b3e59f" r="24.49"/><circle cx="256.001" cy="328" fill="#b3e59f" r="24.49"/><g fill="#95d6a4"><path d="m262.689 351.558c-2.131.613-4.376.934-6.696.934-13.524 0-24.482-10.968-24.482-24.492s10.958-24.491 24.482-24.491c2.32 0 4.564.321 6.696.934-10.27 2.905-17.786 12.354-17.786 23.558s7.516 20.652 17.786 23.557z"/><path d="m262.689 279.557c-2.131.613-4.376.934-6.696.934-13.524 0-24.482-10.968-24.482-24.492s10.958-24.492 24.482-24.492c2.32 0 4.564.321 6.696.934-10.27 2.905-17.786 12.354-17.786 23.558 0 11.203 7.516 20.653 17.786 23.558z"/></g></g><g><path d="m478.97 238.894-.257-1.099c-3.769-15.851-13.228-30.028-26.628-39.916-12.545-9.272-28.113-14.379-43.838-14.379-3.521 0-7.059.251-10.521.747-8.061 1.162-16.253 2.239-24.487 3.218 8.622-17.672 13.128-37.147 13.128-57.094 0-34.523-13.358-67.058-37.614-91.61-24.224-24.533-56.583-38.295-91.133-38.751 0 0-.931-.01-1.366-.01-.002 0-.004 0-.005 0l-1.981.01c-34.469.457-66.793 14.218-91.016 38.748-24.263 24.55-37.625 57.085-37.625 91.612 0 19.938 4.506 39.412 13.132 57.094-8.24-.979-16.44-2.056-24.508-3.217-3.429-.496-6.966-.747-10.513-.747-15.646 0-31.151 5.063-43.658 14.254-13.338 9.791-22.815 23.838-26.666 39.48l-.11.43c-.024.093-.046.186-.066.279l-.245 1.131c-1.519 6.71-1.938 13.577-1.252 20.362l.03.32c.009.098.021.195.034.292l.06.449c.24 2.087.58 4.129.999 6.013 5.935 27.729 28.902 49.231 58.502 54.78 12.437 2.349 25.277 4.477 38.176 6.328-.206 24.416-6.02 48.85-16.849 70.75l-5.028 10.176c-8.488 17.153-9.785 36.59-3.653 54.728 6.135 18.148 18.964 32.809 36.118 41.28 9.985 4.942 20.663 7.448 31.737 7.448 27.469 0 52.096-15.295 64.272-39.915l19.857-40.147 19.857 40.146c12.171 24.61 36.801 39.905 64.283 39.916 11.062 0 21.739-2.505 31.736-7.448 17.163-8.492 29.991-23.152 36.119-41.279 5.659-16.731 4.963-34.858-1.958-51.042-1.629-3.809-6.038-5.575-9.845-3.947-3.809 1.629-5.575 6.037-3.947 9.845 5.468 12.784 6.015 27.11 1.541 40.339-4.845 14.333-14.989 25.924-28.559 32.639-7.91 3.91-16.35 5.893-25.083 5.893-21.735-.009-41.215-12.104-50.84-31.565l-22.488-45.465c-2.078-4.208-6.121-6.719-10.814-6.719-4.668 0-8.705 2.5-10.813 6.715l-22.49 45.47c-9.63 19.469-29.106 31.564-50.828 31.564-8.745 0-17.185-1.982-25.089-5.895-13.564-6.698-23.705-18.289-28.556-32.637-4.849-14.342-3.823-29.71 2.889-43.276l5.029-10.178c12.042-24.354 18.407-51.581 18.407-78.734 0-6.542-5.049-12.39-11.506-13.315-13.149-1.866-26.234-4.024-38.902-6.416-23.647-4.433-41.942-21.381-46.62-43.237-.323-1.452-.579-2.996-.759-4.587-.006-.051-.012-.102-.019-.152l-.071-.597c-.528-5.218-.207-10.463.968-15.659l.323-1.423c3.03-12.307 10.486-23.333 20.999-31.05 9.954-7.315 22.305-11.343 34.779-11.343 2.832 0 5.646.199 8.371.593 12.979 1.869 26.288 3.519 39.56 4.906 2.864.301 5.651-1.07 7.164-3.523s1.485-5.557-.07-7.983c-11.863-18.507-18.134-39.989-18.134-62.123 0-30.554 11.824-59.344 33.296-81.07 21.437-21.709 50.041-33.887 80.482-34.29l1.882-.01c.341 0 1.147.009 1.151.009 30.566.403 59.206 12.582 80.644 34.292 21.464 21.728 33.286 50.519 33.286 81.069 0 22.148-6.271 43.629-18.133 62.12-1.557 2.426-1.585 5.53-.073 7.984s4.3 3.823 7.164 3.525c13.27-1.386 26.574-3.037 39.535-4.905 2.753-.395 5.575-.594 8.387-.594 12.538 0 24.94 4.063 34.927 11.445 10.558 7.79 17.997 18.913 20.94 31.291l.242 1.035c1.159 5.069 1.497 10.25 1.015 15.302l-.117 1.083c-.168 1.507-.428 3.088-.771 4.696-4.661 21.807-22.971 38.766-46.65 43.207-12.873 2.418-25.95 4.574-38.879 6.407-6.446.924-11.496 6.772-11.496 13.314 0 21.758 4.184 44.026 12.099 64.396 1.5 3.861 5.847 5.777 9.707 4.274 3.861-1.5 5.775-5.846 4.274-9.707-7.086-18.238-10.907-38.135-11.075-57.626 12.686-1.819 25.51-3.943 38.137-6.315 29.64-5.559 52.623-27.075 58.552-54.818.446-2.092.786-4.165 1.012-6.187l.13-1.205c.639-6.745.196-13.53-1.328-20.199z"/><path d="m141.474 425.265c-4.017 8.123-4.633 17.329-1.733 25.925 2.9 8.587 8.978 15.531 17.103 19.549 4.724 2.343 9.778 3.531 15.022 3.531 13.03 0 24.704-7.245 30.462-18.905l22.491-45.471c5.906-11.944 17.852-19.364 31.177-19.364 13.322 0 25.273 7.421 31.187 19.365l22.488 45.467c5.761 11.663 17.435 18.908 30.464 18.908 5.231 0 10.283-1.187 15.014-3.527 8.126-4.018 14.199-10.962 17.099-19.546 2.911-8.592 2.3-17.801-1.721-25.932l-5.031-10.171c-13.582-27.444-20.761-58.155-20.761-88.813 0-17.91 13.345-33.306 31.043-35.814 12.671-1.798 25.417-3.899 37.876-6.244 16.632-3.113 26.355-15.141 28.61-25.666.172-.796.307-1.597.399-2.38.004-.035.008-.069.011-.103l.055-.527c.268-2.748.088-5.517-.528-8.206l-.181-.8c-3.497-14.672-17.702-25.321-33.776-25.321-1.709 0-3.436.123-5.138.366-16.05 2.309-32.291 4.259-48.297 5.801-.814.082-1.684.123-2.585.123-10.088 0-19.204-5.625-23.789-14.678-4.543-8.969-3.667-19.581 2.282-27.688 11.728-15.95 17.927-34.89 17.927-54.773 0-24.535-9.495-47.655-26.733-65.1-17.226-17.443-40.196-27.224-64.654-27.539 0 0-.686-.011-.972-.011-.104 0-1.485.01-1.525.01-18.879.238-36.95 6.108-52.256 16.974-3.378 2.397-4.172 7.08-1.774 10.457 2.398 3.378 7.08 4.172 10.457 1.774 12.811-9.094 27.944-14.006 43.724-14.206l1.375-.01c.212 0 .721.009.753.009 20.515.264 39.763 8.461 54.202 23.082 14.448 14.621 22.405 33.997 22.405 54.559 0 16.664-5.191 32.531-15.017 45.894-9.316 12.697-10.685 29.306-3.574 43.345 7.155 14.126 21.397 22.901 37.171 22.901 1.396 0 2.768-.066 4.049-.194 16.212-1.561 32.688-3.54 48.962-5.881.995-.142 2.007-.214 3.009-.214 9.21 0 17.279 5.803 19.164 13.709l.166.736c.261 1.137.336 2.29.23 3.38l-.043.42c-.037.295-.089.604-.16.933-1.217 5.679-6.854 12.235-16.714 14.081-12.246 2.305-24.767 4.369-37.215 6.135-25.048 3.55-43.938 25.331-43.938 50.666 0 32.953 7.717 65.965 22.317 95.465l5.03 10.169c2.243 4.537 2.584 9.675.958 14.476-1.619 4.792-5.006 8.666-9.54 10.907-2.646 1.309-5.461 1.973-8.365 1.973-7.281 0-13.801-4.043-17.018-10.555l-22.491-45.473c-8.464-17.093-25.566-27.712-44.631-27.712-19.071 0-36.169 10.62-44.623 27.715l-22.492 45.474c-3.214 6.508-9.734 10.551-17.015 10.551-2.911 0-5.723-.663-8.366-1.973-4.54-2.245-7.931-6.118-9.548-10.904-1.62-4.801-1.276-9.943.966-14.478l5.03-10.17c14.6-29.521 22.317-62.533 22.317-95.465 0-25.333-18.889-47.114-43.942-50.666-12.287-1.734-24.799-3.798-37.2-6.136-9.868-1.844-15.505-8.369-16.714-14.018-.01-.044-.02-.088-.03-.132l-.013-.055c-.053-.256-.106-.597-.154-.979l-.021-.173c-.108-1.145-.03-2.306.251-3.53l.167-.763c1.99-7.89 10.018-13.607 19.126-13.607 1.007 0 2.034.073 3.03.213 16.248 2.34 32.717 4.319 48.996 5.887 1.398.126 2.748.19 4.014.19 15.767 0 30.006-8.775 37.163-22.905 7.103-14.047 5.732-30.654-3.579-43.345-9.816-13.361-15.004-29.229-15.004-45.89 0-15.865 4.724-31.09 13.661-44.027 2.354-3.408 1.5-8.079-1.908-10.434-3.41-2.355-8.079-1.499-10.434 1.908-10.674 15.453-16.317 33.626-16.317 52.551 0 19.877 6.195 38.816 17.913 54.767 5.948 8.107 6.823 18.721 2.286 27.695-4.585 9.054-13.697 14.678-23.779 14.678-.817 0-1.714-.043-2.621-.125-16-1.541-32.234-3.492-48.273-5.802-1.71-.241-3.441-.363-5.145-.363-15.953 0-30.131 10.559-33.713 25.107-.016.064-.031.129-.045.193l-.172.791c-.634 2.762-.813 5.578-.533 8.37.005.046.01.091.015.137l.035.294c.112.896.24 1.671.39 2.368l.027.123.017.071c2.28 10.494 11.998 22.444 28.598 25.547 12.615 2.378 25.357 4.48 37.867 6.246 17.697 2.509 31.043 17.906 31.043 35.814 0 30.638-7.18 61.35-20.763 88.815z"/><path d="m256.001 224.009c-17.639 0-31.99 14.351-31.99 31.99 0 17.64 14.351 31.99 31.99 31.99 17.64 0 31.99-14.351 31.99-31.99.001-17.64-14.35-31.99-31.99-31.99zm0 48.98c-9.368 0-16.99-7.622-16.99-16.99s7.622-16.99 16.99-16.99c9.369 0 16.99 7.622 16.99 16.99.001 9.368-7.621 16.99-16.99 16.99z"/><path d="m272.992 138.596c0 9.368-7.622 16.99-16.99 16.99s-16.99-7.622-16.99-16.99c0-4.142-3.358-7.5-7.5-7.5s-7.5 3.358-7.5 7.5c0 17.639 14.351 31.99 31.99 31.99 17.64 0 31.99-14.351 31.99-31.99 0-4.142-3.358-7.5-7.5-7.5s-7.5 3.358-7.5 7.5z"/><path d="m256.001 296.01c-17.639 0-31.99 14.351-31.99 31.99 0 17.64 14.351 31.99 31.99 31.99 17.64 0 31.99-14.351 31.99-31.99.001-17.64-14.35-31.99-31.99-31.99zm0 48.98c-9.368 0-16.99-7.622-16.99-16.99s7.622-16.99 16.99-16.99c9.369 0 16.99 7.622 16.99 16.99.001 9.368-7.621 16.99-16.99 16.99z"/><path d="m292.343 121.816c4.142 0 7.5-3.358 7.5-7.5v-10.451c0-4.142-3.358-7.5-7.5-7.5s-7.5 3.358-7.5 7.5v10.451c0 4.142 3.358 7.5 7.5 7.5z"/><path d="m219.658 96.365c-4.142 0-7.5 3.358-7.5 7.5v10.451c0 4.142 3.358 7.5 7.5 7.5s7.5-3.358 7.5-7.5v-10.451c0-4.142-3.358-7.5-7.5-7.5z"/></g></g></svg>