<svg height="447pt" viewBox="0 0 447.8 447" width="447pt" xmlns="http://www.w3.org/2000/svg"><path d="m367.214844 51.863281c-25.605469-21.441406-55.691406-36.875-88.046875-45.160156 21.105469 20.09375 37.277343 44.796875 47.246093 72.175781 14.546876-7.488281 28.226563-16.546875 40.800782-27.015625zm0 0"/><path d="m0 231.769531c2.050781 58.035157 26.628906 112.992188 68.519531 153.214844 14.414063-12.25 30.230469-22.753906 47.113281-31.289063-12.761718-39.398437-19.414062-80.515624-19.730468-121.925781zm0 0"/><path d="m231.800781.40625v103.203125c27.535157-.972656 54.65625-7.015625 80-17.832031-19.03125-48.410156-47.769531-80.746094-80-85.371094zm0 0"/><path d="m447.496094 232.351562v-.582031h-39.695313v-16h39.800781c-2.050781-57.988281-26.585937-112.902343-68.417968-153.113281-14.4375 12.285156-30.28125 22.816406-47.199219 31.367188 11.929687 36.6875 18.511719 74.902343 19.550781 113.464843l-16 .558594c-1.023437-36.410156-7.167968-72.5-18.246094-107.199219-27.105468 11.4375-56.085937 17.789063-85.488281 18.738282v96.183593h48v16h-48v48h-16v-48h-103.898437c.378906 39.035157 6.566406 77.800781 18.363281 115.015625 24.464844-10.382812 50.484375-16.621094 77-18.457031l1.070313 15.960937c-25.039063 1.664063-49.617188 7.546876-72.695313 17.398438 18.976563 48.410156 47.671875 80.800781 80.160156 85.449219v-39.367188h16v39.65625c4.722657-.171875 9.4375-.46875 14.136719-.890625 1.160156-.109375 2.320312-.230468 3.46875-.367187 3.019531-.3125 6.019531-.734375 9.019531-1.191407 5.519531-.863281 10.96875-1.929687 16.351563-3.199218-39.125-27.484375-58.179688-75.589844-48.488282-122.414063 9.691407-46.820312 46.277344-83.40625 93.097657-93.101562 46.820312-9.695313 94.925781 9.359375 122.414062 48.480469 2.503907-10.660157 4.226563-21.492188 5.152344-32.40625.238281-3.3125.421875-6.640626.542969-9.984376zm0 0"/><path d="m343.800781 239.769531c-57.4375 0-104 46.5625-104 104s46.5625 104 104 104 104-46.5625 104-104c-.066406-57.410156-46.589843-103.933593-104-104zm-80 112h-16v-16h16zm72-104h16v16h-16zm16 192h-16v-16h16zm-8-72c-10.136719-.042969-19.152343-6.445312-22.527343-16h-25.472657v-16h25.472657c2.417968-6.777343 7.75-12.109375 14.527343-14.53125v-41.46875h16v41.46875c11.011719 3.878907 17.621094 15.136719 15.640625 26.644531-1.976562 11.503907-11.964844 19.90625-23.640625 19.886719zm80-32h16v16h-16zm0 0"/><path d="m351.800781 343.769531c0 4.417969-3.582031 8-8 8s-8-3.582031-8-8 3.582031-8 8-8 8 3.582031 8 8zm0 0"/><path d="m215.800781 119.585938c-29.429687-.964844-58.425781-7.335938-85.542969-18.800782-11.789062 37.203125-17.972656 75.957032-18.355468 114.984375h103.898437zm0 0"/><path d="m215.800781.398438c-32.464843 4.617187-61.128906 36.984374-80.105469 85.320312 25.371094 10.84375 52.53125 16.902344 80.105469 17.867188zm0 0"/><path d="m68.414062 62.65625c-41.828124 40.210938-66.367187 95.125-68.414062 153.113281h95.902344c.320312-41.355469 6.953125-82.417969 19.671875-121.769531-16.898438-8.550781-32.730469-19.074219-47.160157-31.34375zm0 0"/><path d="m168.238281 6.753906c-32.28125 8.292969-62.300781 23.707032-87.855469 45.109375 12.550782 10.449219 26.207032 19.492188 40.722657 26.96875 9.941406-27.339843 26.074219-52.007812 47.132812-72.078125zm0 0"/><path d="m121.070312 368.625c-14.46875 7.5625-28.066406 16.683594-40.558593 27.199219 25.527343 21.34375 55.5 36.71875 87.726562 45-21.082031-20.105469-37.222656-44.816407-47.167969-72.199219zm0 0"/></svg>